$MeshFormat
4.1 0 8
$EndMeshFormat
$Entities
4 4 1 0
1 0 0 0 0 
2 1 0 0 0 
3 1 1 0 0 
4 0 1 0 0 
1 -9.999999994736442e-08 -1e-07 -1e-07 1.0000001 1e-07 1e-07 0 2 1 -2 
2 0.9999999000000001 -9.999999994736442e-08 -1e-07 1.0000001 1.0000001 1e-07 0 2 2 -3 
3 -9.999999994736442e-08 0.9999999000000001 -1e-07 1.0000001 1.0000001 1e-07 0 2 3 -4 
4 -1e-07 -9.999999994736442e-08 -1e-07 1e-07 1.0000001 1e-07 0 2 4 -1 
1 -9.999999994736442e-08 -9.999999994736442e-08 -1e-07 1.0000001 1.0000001 1e-07 0 4 1 2 3 4 
$EndEntities
$Nodes
9 31 1 31
0 1 0 1
1
0 0 0
0 2 0 1
2
1 0 0
0 3 0 1
3
1 1 0
0 4 0 1
4
0 1 0
1 1 0 3
5
6
7
0.25 0 0
0.5 0 0
0.75 0 0
1 2 0 3
8
9
10
1 0.25 0
1 0.5 0
1 0.75 0
1 3 0 3
11
12
13
0.75 1 0
0.5 1 0
0.25 1 0
1 4 0 3
14
15
16
0 0.75 0
0 0.5 0
0 0.25 0
2 1 0 15
17
18
19
20
21
22
23
24
25
26
27
28
29
30
31
0.3640358958115698 0.7953881872687139 0
0.375 0.2165063509461096 0
0.788306988736042 0.3760593423202191 0
0.7885993441589132 0.6240050006292597 0
0.5669872981077807 0.5 0
0.6328802641586005 0.2125963991930914 0
0.2917273223602594 0.4796557459309013 0
0.6010369744916511 0.7634332779177373 0
0.1768489190752347 0.3103138265074931 0
0.155290190286839 0.625 0
0.8169872981077806 0.8169872981077807 0
0.8169872981077806 0.1830127018922193 0
0.1749592066742909 0.8219022194693535 0
0.4115988944960767 0.6167789108779783 0
0.1484804596480833 0.1459265064213862 0
$EndNodes
$Elements
9 64 1 64
0 1 15 1
1 1 
0 2 15 1
2 2 
0 3 15 1
3 3 
0 4 15 1
4 4 
1 1 1 4
5 1 5 
6 5 6 
7 6 7 
8 7 2 
1 2 1 4
9 2 8 
10 8 9 
11 9 10 
12 10 3 
1 3 1 4
13 3 11 
14 11 12 
15 12 13 
16 13 4 
1 4 1 4
17 4 14 
18 14 15 
19 15 16 
20 16 1 
2 1 2 44
21 21 23 18 
22 18 22 21 
23 21 22 19 
24 20 24 21 
25 15 25 23 
26 24 30 21 
27 23 26 15 
28 20 21 19 
29 6 18 5 
30 9 20 19 
31 9 19 8 
32 10 20 9 
33 13 17 12 
34 16 25 15 
35 26 30 17 
36 7 22 6 
37 12 24 11 
38 6 22 18 
39 17 24 12 
40 21 30 23 
41 23 25 18 
42 8 28 2 
43 3 27 10 
44 2 28 7 
45 11 27 3 
46 14 29 4 
47 4 29 13 
48 17 30 24 
49 17 29 26 
50 18 31 5 
51 23 30 26 
52 7 28 22 
53 24 27 11 
54 15 26 14 
55 13 29 17 
56 19 28 8 
57 10 27 20 
58 25 31 18 
59 5 31 1 
60 1 31 16 
61 22 28 19 
62 20 27 24 
63 26 29 14 
64 16 31 25 
$EndElements
